<?xml version="1.0" standalone="no"?><!DOCTYPE svg PUBLIC "-//W3C//DTD SVG 1.1//EN" "http://www.w3.org/Graphics/SVG/1.1/DTD/svg11.dtd"><svg t="1566881246525" class="icon" viewBox="0 0 1024 1024" version="1.1" xmlns="http://www.w3.org/2000/svg" p-id="22000" xmlns:xlink="http://www.w3.org/1999/xlink" width="240" height="240"><defs><style type="text/css"></style></defs><path d="M440.35072 623.04768 46.04416 373.1456l0 393.62048c0 64.63488 52.53632 117.39136 117.31968 117.39136l706.71872 0c64.70656 0 117.31456-52.57728 117.31456-117.39136l0-387.1232-368.99328 242.10944C568.1408 654.72 491.07968 655.19104 440.35072 623.04768L440.35072 623.04768 440.35072 623.04768z" p-id="22001"></path><path d="M870.08256 158.51008 163.35872 158.51008c-64.70656 0-117.31968 52.57728-117.31968 117.39136l0 0.90112 443.30496 280.96c20.83328 13.2096 58.27584 12.95872 78.93504-0.57856l419.1488-275.00032 0-6.28224C987.39712 211.3024 934.8608 158.51008 870.08256 158.51008L870.08256 158.51008 870.08256 158.51008z" p-id="22002"></path></svg>